<svg xmlns="http://www.w3.org/2000/svg" width="22" height="21.969" viewBox="0 0 22 21.969">
  <defs>
    <style>
      .cls-1 {
        fill: #7d87a4;
        fill-rule: evenodd;
      }
    </style>
  </defs>
  <path id="распродажа" class="cls-1" d="M40.321,717.707a0.545,0.545,0,0,0,0,.586l0.5,0.788a1.169,1.169,0,0,1-.277,1.553l-0.741.573a0.546,0.546,0,0,0-.2.55l0.194,0.909a1.178,1.178,0,0,1-.8,1.366l-0.895.288a0.553,0.553,0,0,0-.382.449l-0.133.919a1.191,1.191,0,0,1-1.224,1.014l-0.941-.031a0.559,0.559,0,0,0-.514.293l-0.444.819a1.2,1.2,0,0,1-1.5.539l-0.873-.346a0.565,0.565,0,0,0-.585.1l-0.7.62a1.208,1.208,0,0,1-1.6,0l-0.7-.62a0.566,0.566,0,0,0-.585-0.1l-0.874.346a1.2,1.2,0,0,1-1.5-.539l-0.443-.819a0.559,0.559,0,0,0-.514-0.293l-0.941.031a1.192,1.192,0,0,1-1.224-1.014l-0.133-.919a0.553,0.553,0,0,0-.382-0.449l-0.895-.288a1.178,1.178,0,0,1-.8-1.366l0.194-.908a0.547,0.547,0,0,0-.2-0.551l-0.741-.573a1.169,1.169,0,0,1-.277-1.553l0.5-.788a0.545,0.545,0,0,0,0-.586l-0.5-.788a1.169,1.169,0,0,1,.277-1.553l0.741-.573a0.547,0.547,0,0,0,.2-0.551l-0.194-.908a1.178,1.178,0,0,1,.8-1.366l0.895-.288a0.553,0.553,0,0,0,.382-0.449l0.133-.919a1.191,1.191,0,0,1,1.224-1.014l0.941,0.031a0.56,0.56,0,0,0,.514-0.293l0.443-.819a1.2,1.2,0,0,1,1.5-.539l0.874,0.346a0.565,0.565,0,0,0,.585-0.1l0.7-.62a1.207,1.207,0,0,1,1.6,0l0.7,0.62a0.565,0.565,0,0,0,.585.1l0.873-.346a1.2,1.2,0,0,1,1.5.539l0.444,0.819a0.559,0.559,0,0,0,.514.293l0.941-.031a1.192,1.192,0,0,1,1.224,1.014l0.133,0.919a0.553,0.553,0,0,0,.382.449l0.895,0.288a1.178,1.178,0,0,1,.8,1.366l-0.194.908a0.547,0.547,0,0,0,.2.551l0.741,0.573a1.169,1.169,0,0,1,.277,1.553Zm-0.172-1.848-0.741-.574a1.163,1.163,0,0,1-.432-1.171l0.194-.909a0.552,0.552,0,0,0-.375-0.641l-0.895-.289a1.177,1.177,0,0,1-.813-0.956l-0.133-.919a0.559,0.559,0,0,0-.575-0.476l-0.941.031a1.194,1.194,0,0,1-1.095-.624l-0.444-.819a0.565,0.565,0,0,0-.705-0.253l-0.873.346a1.2,1.2,0,0,1-1.245-.217l-0.7-.62a0.568,0.568,0,0,0-.751,0l-0.7.62a1.2,1.2,0,0,1-1.245.217l-0.873-.346a0.564,0.564,0,0,0-.705.253l-0.444.819a1.194,1.194,0,0,1-1.095.624l-0.941-.031a0.559,0.559,0,0,0-.575.476l-0.133.919a1.177,1.177,0,0,1-.813.956l-0.895.289a0.552,0.552,0,0,0-.375.641l0.194,0.909a1.165,1.165,0,0,1-.433,1.172l-0.741.573a0.548,0.548,0,0,0-.13.729l0.5,0.788a1.161,1.161,0,0,1,0,1.248l-0.5.788a0.548,0.548,0,0,0,.13.729l0.741,0.574a1.164,1.164,0,0,1,.433,1.172l-0.194.908a0.554,0.554,0,0,0,.375.642l0.895,0.288a1.178,1.178,0,0,1,.813.956l0.133,0.919a0.559,0.559,0,0,0,.575.476l0.941-.031a1.2,1.2,0,0,1,1.095.624l0.444,0.819a0.564,0.564,0,0,0,.705.253l0.873-.346a1.215,1.215,0,0,1,.449-0.086,1.2,1.2,0,0,1,.8.3l0.7,0.62a0.568,0.568,0,0,0,.751,0l0.7-.62a1.2,1.2,0,0,1,1.245-.217l0.873,0.346a0.565,0.565,0,0,0,.706-0.253l0.444-.819a1.193,1.193,0,0,1,1.095-.624l0.941,0.031a0.559,0.559,0,0,0,.575-0.476l0.133-.919a1.178,1.178,0,0,1,.813-0.956l0.895-.288a0.554,0.554,0,0,0,.375-0.642l-0.194-.908a1.166,1.166,0,0,1,.432-1.173l0.741-.573a0.548,0.548,0,0,0,.13-0.729l-0.5-.788a1.161,1.161,0,0,1,0-1.248l0.5-.788A0.548,0.548,0,0,0,40.149,715.859Zm-4.556,8.415a8.559,8.559,0,0,1-11.186,0,8.316,8.316,0,0,1-2.8-5.139,0.317,0.317,0,0,1,.629-0.085,7.693,7.693,0,0,0,2.589,4.754,7.918,7.918,0,0,0,10.347,0,7.692,7.692,0,0,0,2.589-4.754,0.317,0.317,0,0,1,.629.085A8.316,8.316,0,0,1,35.593,724.274ZM25.36,716.752v-1.838a1.454,1.454,0,0,1,1.7-1.527,1.459,1.459,0,0,1,1.7,1.527v1.838a1.459,1.459,0,0,1-1.7,1.528A1.454,1.454,0,0,1,25.36,716.752Zm2.493,0v-1.838a0.682,0.682,0,0,0-.793-0.733,0.673,0.673,0,0,0-.781.733v1.838a0.673,0.673,0,0,0,.781.733A0.682,0.682,0,0,0,27.853,716.752Zm6.471,2.385v1.838a1.459,1.459,0,0,1-1.7,1.528,1.454,1.454,0,0,1-1.7-1.528v-1.838a1.454,1.454,0,0,1,1.7-1.528A1.459,1.459,0,0,1,34.324,719.137Zm-2.48,0v1.838a0.673,0.673,0,0,0,.781.733,0.682,0.682,0,0,0,.793-0.733v-1.838a0.682,0.682,0,0,0-.793-0.733A0.673,0.673,0,0,0,31.844,719.137ZM27.576,722.9a0.484,0.484,0,0,1-.491-0.459,0.349,0.349,0,0,1,.05-0.187l4.62-9.128a0.394,0.394,0,0,1,.378-0.224,0.485,0.485,0,0,1,.491.671L28,722.664A0.478,0.478,0,0,1,27.576,722.9Zm10.543-5.691a0.317,0.317,0,0,1-.357-0.268,7.69,7.69,0,0,0-2.591-4.747,7.914,7.914,0,0,0-10.342,0,7.692,7.692,0,0,0-2.59,4.75,0.317,0.317,0,0,1-.629-0.085,8.317,8.317,0,0,1,2.8-5.135,8.555,8.555,0,0,1,11.18,0,8.312,8.312,0,0,1,2.8,5.132A0.314,0.314,0,0,1,38.119,717.209Z" transform="translate(-19 -707.031)"/>
</svg>
