<svg xmlns="http://www.w3.org/2000/svg" width="21" height="19" viewBox="0 0 21 19">
  <defs>
    <style>
      .cls-1 {
        fill: #7d87a4;
        fill-rule: evenodd;
      }
    </style>
  </defs>
  <path id="бассейны_и_аксессуары" data-name="бассейны и аксессуары" class="cls-1" d="M39.475,608.7a0.527,0.527,0,0,1-.525-0.528,2.1,2.1,0,1,0-4.2,0V620.33c0.036,0.035.076,0.071,0.109,0.1a0.739,0.739,0,0,0,1.253,0,1.756,1.756,0,0,1,2.737,0,0.794,0.794,0,0,0,.627.347,0.528,0.528,0,0,1,0,1.055,1.8,1.8,0,0,1-1.369-.656,0.739,0.739,0,0,0-1.253,0,1.756,1.756,0,0,1-2.737,0,0.739,0.739,0,0,0-1.252,0,1.756,1.756,0,0,1-2.738,0,0.738,0.738,0,0,0-1.252,0,1.756,1.756,0,0,1-2.737,0,0.739,0.739,0,0,0-1.253,0,1.756,1.756,0,0,1-2.737,0,0.739,0.739,0,0,0-1.253,0,1.8,1.8,0,0,1-1.369.656,0.528,0.528,0,0,1,0-1.055,0.794,0.794,0,0,0,.627-0.347,1.755,1.755,0,0,1,2.737,0,0.739,0.739,0,0,0,1.253,0,1.89,1.89,0,0,1,1.159-.628V608.167a3.15,3.15,0,1,1,6.3,0,0.525,0.525,0,1,1-1.05,0,2.1,2.1,0,1,0-4.2,0v3.166H33.7v-3.166a3.15,3.15,0,1,1,6.3,0A0.527,0.527,0,0,1,39.475,608.7ZM26.35,618.722V620a2.594,2.594,0,0,1,.529.436,0.739,0.739,0,0,0,1.253,0,1.756,1.756,0,0,1,2.737,0,0.739,0.739,0,0,0,1.253,0,1.8,1.8,0,0,1,1.368-.656,1.492,1.492,0,0,1,.21.028h0v-1.084H26.35Zm7.35-6.333H26.35V614.5H33.7v-2.111Zm0,3.167H26.35v2.111H33.7v-2.111Zm-14.175,7.388a0.794,0.794,0,0,0,.626-0.346,1.754,1.754,0,0,1,2.737,0,0.74,0.74,0,0,0,1.253,0,1.754,1.754,0,0,1,2.738,0,0.74,0.74,0,0,0,1.252,0,1.754,1.754,0,0,1,2.737,0,0.74,0.74,0,0,0,1.253,0,1.754,1.754,0,0,1,2.737,0,0.74,0.74,0,0,0,1.252,0,1.754,1.754,0,0,1,2.737,0,0.8,0.8,0,0,0,.627.346,0.528,0.528,0,0,1,0,1.056,1.8,1.8,0,0,1-1.368-.656,0.739,0.739,0,0,0-1.253,0,1.756,1.756,0,0,1-2.737,0,0.739,0.739,0,0,0-1.253,0,1.756,1.756,0,0,1-2.738,0,0.738,0.738,0,0,0-1.252,0,1.756,1.756,0,0,1-2.738,0,0.739,0.739,0,0,0-1.253,0,1.755,1.755,0,0,1-2.737,0,0.739,0.739,0,0,0-1.253,0,1.8,1.8,0,0,1-1.369.656A0.528,0.528,0,0,1,19.525,622.944Z" transform="translate(-19 -605)"/>
</svg>
