<svg xmlns="http://www.w3.org/2000/svg" width="25" height="21" viewBox="0 0 25 21">
  <defs>
    <style>
      .cls-1 {
        fill: #7d87a4;
        fill-rule: evenodd;
      }
    </style>
  </defs>
  <path id="товары_для_дома" data-name="товары для дома" class="cls-1" d="M41.772,559.358a0.4,0.4,0,0,1-.427-0.046l-0.208-.166v12.039H41.6a0.408,0.408,0,0,1,0,.815H17.405a0.408,0.408,0,0,1,0-.815h0.459v-4.217l-0.208.165a0.4,0.4,0,0,1-.251.087,0.394,0.394,0,0,1-.177-0.041A0.407,0.407,0,0,1,17,566.813V564.64a0.411,0.411,0,0,1,.154-0.32l5.3-4.2a1.261,1.261,0,0,1,1.571,0l3.777,2.994v-3.97l-0.208.166a0.405,0.405,0,0,1-.656-0.32v-2.173a0.408,0.408,0,0,1,.154-0.32l1.574-1.247v-2.778a0.407,0.407,0,0,1,.4-0.408H30.8a0.407,0.407,0,0,1,.405.408v0.767l2.481-1.967a1.259,1.259,0,0,1,1.571,0l6.593,5.225a0.408,0.408,0,0,1,.154.32v2.173A0.407,0.407,0,0,1,41.772,559.358ZM31.2,571.185h1.782v-2.228H32.956a0.405,0.405,0,0,1-.286-0.119,0.409,0.409,0,0,1,0-.576,0.405,0.405,0,0,1,.286-0.119h0.027v-2.228H31.2v5.268Zm-2.592,0h1.782v-5.676A0.406,0.406,0,0,1,30.8,565.1h2.592a0.406,0.406,0,0,1,.4.407v5.676h6.533v-12.68l-5.858-4.644-5.858,4.644v12.68Zm-7.343,0h3.942v-0.923H21.266v0.923Zm0-1.738h3.942v-0.923H21.266v0.923Zm0-1.738h3.942v-0.923H21.266v0.923Zm-2.592,3.476h1.782v-4.807a0.406,0.406,0,0,1,.405-0.407h4.752a0.406,0.406,0,0,1,.4.407v4.807H27.8v-4.859l-4.563-3.616-4.563,3.616v4.859Zm4.847-10.423a0.457,0.457,0,0,0-.568,0l-5.143,4.076v1.135l5.176-4.1a0.4,0.4,0,0,1,.5,0l4.312,3.418v-1.136Zm6.87-7.881H29.473v1.729l0.918-.728v-1Zm10.8,4.136-6.438-5.1a0.454,0.454,0,0,0-.568,0l-6.438,5.1v1.135l6.472-5.129a0.4,0.4,0,0,1,.5,0l6.472,5.129v-1.135Zm-7.8,6.293H30.8a0.407,0.407,0,0,1-.405-0.408v-3.476a0.406,0.406,0,0,1,.405-0.407h2.592a0.406,0.406,0,0,1,.4.407V562.9A0.407,0.407,0,0,1,33.388,563.31Zm-0.405-3.477H31.2v0.489h1.782v-0.489Zm0,1.3H31.2V562.5h1.782v-1.358Zm2.565-2.118h2.592a0.406,0.406,0,0,1,.405.407V562.9a0.407,0.407,0,0,1-.405.408H35.548a0.407,0.407,0,0,1-.405-0.408v-3.476A0.406,0.406,0,0,1,35.548,559.019Zm0.405,3.476h1.782v-1.358H35.953V562.5Zm0-2.173h1.782v-0.489H35.953v0.489Zm-0.405,4.78h2.592a0.406,0.406,0,0,1,.405.407v3.477a0.406,0.406,0,0,1-.405.407H35.548a0.407,0.407,0,0,1-.405-0.407v-3.477A0.406,0.406,0,0,1,35.548,565.1Zm0.405,3.476h1.782V567.22H35.953v1.358Zm0-2.172h1.782v-0.489H35.953v0.489Z" transform="translate(-17 -551)"/>
</svg>
