<svg xmlns="http://www.w3.org/2000/svg" width="27" height="30" viewBox="0 0 27 30">
  <defs>
    <style>
      .cls-1 {
        fill: #7d87a4;
        fill-rule: evenodd;
      }
    </style>
  </defs>
  <path id="новогодние_товары" data-name="новогодние товары" class="cls-1" d="M41.694,306.178A1.306,1.306,0,1,1,43,304.872,1.308,1.308,0,0,1,41.694,306.178Zm0-1.679a0.373,0.373,0,1,0,.373.373A0.374,0.374,0,0,0,41.694,304.5Zm-2.257,3.781a40.107,40.107,0,0,1-7.821,1.048v5.739h1.213a0.467,0.467,0,0,1,.466.481,0.48,0.48,0,0,1-.486.452h-5.02a0.467,0.467,0,0,1-.466-0.481,0.48,0.48,0,0,1,.486-0.452H28.94v-5.739q-0.932-.031-1.863-0.108a0.468,0.468,0,0,1-.43-0.465h0a0.466,0.466,0,0,1,.5-0.465q1.458,0.118,2.918.127h0.42A38.645,38.645,0,0,0,35.913,308,41.809,41.809,0,0,1,30.8,306.97a1.648,1.648,0,0,1-3.038-.885c0-.009,0-0.019,0-0.028-1.536-.518-2.646-0.977-3.156-1.2l-2.485,2.689q1.174,0.251,2.352.429a0.466,0.466,0,0,1-.143.921q-1.6-.241-3.194-0.616a0.481,0.481,0,0,1-.31-0.221,0.467,0.467,0,0,1,.06-0.552l3.257-3.524h0l1.2-1.3q-0.962-.177-1.92-0.421a0.467,0.467,0,0,1-.351-0.458,0.48,0.48,0,0,1,.119-0.305l0.294-.347h0l2.916-3.438q-0.682-.114-1.363-0.268a0.467,0.467,0,0,1-.363-0.427,0.479,0.479,0,0,1,.138-0.36l5-5.218v-1.154l-0.414.3a0.467,0.467,0,0,1-.6-0.042,0.481,0.481,0,0,1-.114-0.5l0.355-1.091-0.943-.685a0.466,0.466,0,0,1-.145-0.581,0.483,0.483,0,0,1,.437-0.263h1.147l0.36-1.107A0.467,0.467,0,0,1,30.4,286a0.483,0.483,0,0,1,.385.335l0.355,1.09h1.165a0.467,0.467,0,0,1,.459.386,0.482,0.482,0,0,1-.2.469l-0.928.674,0.354,1.089a0.482,0.482,0,0,1-.159.536,0.466,0.466,0,0,1-.553,0l-0.538-.391v1.244l5,5.227a0.468,0.468,0,0,1,.067.556,0.484,0.484,0,0,1-.314.225q-0.674.151-1.35,0.265l3.218,3.794a0.467,0.467,0,0,1,.021.577,0.483,0.483,0,0,1-.274.18q-0.952.243-1.908,0.418l4.462,4.828A0.466,0.466,0,0,1,39.436,308.28Zm-8.754,1.07H29.873v5.717h0.809V309.35Zm-1.275-2.55a0.715,0.715,0,1,0-.716-0.715A0.716,0.716,0,0,0,29.407,306.8Zm1.411-18.4,0.055-.04H30.8a0.467,0.467,0,0,1-.444-0.322l-0.021-.065-0.021.065a0.466,0.466,0,0,1-.444.322H29.807l0.055,0.04a0.467,0.467,0,0,1,.169.522l-0.021.064,0.055-.04a0.467,0.467,0,0,1,.549,0l0.055,0.04-0.021-.064A0.467,0.467,0,0,1,30.818,288.4Zm3.675,8.3-4.215-4.4-4.215,4.4a22.686,22.686,0,0,0,3.333.38,0.466,0.466,0,1,1-.038.932q-0.932-.036-1.863-0.148l-2.477,2.92,2.868-.477a1.273,1.273,0,0,1,2.377-.582l3.863-.607-1.064-1.254q-0.466.055-.933,0.093a0.467,0.467,0,0,1-.5-0.466h0a0.465,0.465,0,0,1,.429-0.465A22.771,22.771,0,0,0,34.493,296.705Zm-5.677,3.659a0.342,0.342,0,1,0,.342-0.342A0.342,0.342,0,0,0,28.816,300.364Zm7.354,1.169-1.337-1.576-4.433.695a1.272,1.272,0,0,1-2.2.553l-3,.5A26.32,26.32,0,0,0,36.169,301.533Zm-2.063,1.329a27.08,27.08,0,0,1-7.657,0l-1.173,1.269c0.572,0.239,1.532.62,2.762,1.036a1.648,1.648,0,0,1,3.017.907,38.408,38.408,0,0,0,7.156,1.229Zm3.979-7.068a1.555,1.555,0,1,1,1.555-1.555A1.557,1.557,0,0,1,38.085,295.794Zm0-2.177a0.622,0.622,0,1,0,.622.622A0.623,0.623,0,0,0,38.085,293.617Zm-19.6,2.177a1.555,1.555,0,1,1,1.555-1.555A1.557,1.557,0,0,1,18.489,295.794Zm0-2.177a0.622,0.622,0,1,0,.622.622A0.623,0.623,0,0,0,18.489,293.617Zm0.249,11.318a1.369,1.369,0,1,1-1.369-1.368A1.37,1.37,0,0,1,18.737,304.935Zm-1.8,0a0.435,0.435,0,1,0,.435-0.436A0.436,0.436,0,0,0,16.933,304.935Zm4.293,6.4a1.555,1.555,0,1,1-1.555,1.554A1.556,1.556,0,0,1,21.226,311.34Zm0,2.176a0.622,0.622,0,1,0-.622-0.622A0.623,0.623,0,0,0,21.226,313.516Zm14.993-2.363a1.368,1.368,0,1,1-1.369,1.368A1.37,1.37,0,0,1,36.219,311.153Zm0,1.8a0.435,0.435,0,1,0-.435-0.435A0.436,0.436,0,0,0,36.219,312.956Z" transform="translate(-16 -286)"/>
</svg>
