<svg xmlns="http://www.w3.org/2000/svg" width="22" height="24" viewBox="0 0 22 24">
  <defs>
    <style>
      .cls-1 {
        fill: #7d87a4;
        fill-rule: evenodd;
      }
    </style>
  </defs>
  <path id="для_свадьбы_и_праздника" data-name="для свадьбы и праздника" class="cls-1" d="M40.6,460.047H37.259V454.4a0.4,0.4,0,0,0-.4-0.395H34.248s0-3.656,0-3.74a2.224,2.224,0,0,0,.348-1.384,5.673,5.673,0,0,0-1.079-2.714,0.408,0.408,0,0,0-.655,0,5.675,5.675,0,0,0-1.078,2.714,2.245,2.245,0,0,0,.388,1.439c0,0.072,0,3.685,0,3.685H31.037s0-3.657,0-3.742a2.22,2.22,0,0,0,.348-1.383,5.678,5.678,0,0,0-1.079-2.715,0.408,0.408,0,0,0-.655,0,5.681,5.681,0,0,0-1.078,2.715,2.241,2.241,0,0,0,.388,1.438c0,0.073,0,3.687,0,3.687H27.827s0-3.657,0-3.742a2.22,2.22,0,0,0,.348-1.383,5.678,5.678,0,0,0-1.079-2.715,0.408,0.408,0,0,0-.655,0,5.681,5.681,0,0,0-1.078,2.715,2.242,2.242,0,0,0,.388,1.438c0,0.073,0,3.687,0,3.687H23.146a0.4,0.4,0,0,0-.4.395v5.647H19.4a0.4,0.4,0,0,0-.4.4V469.6a0.4,0.4,0,0,0,.4.4H40.6a0.4,0.4,0,0,0,.4-0.4v-9.161A0.4,0.4,0,0,0,40.6,460.047Zm-7.4-12.905a3.916,3.916,0,0,1,.6,1.739c0,0.419-.075,1.126-0.574,1.149l-0.026,0-0.026,0c-0.5-.023-0.574-0.73-0.574-1.149A3.919,3.919,0,0,1,33.194,447.142Zm0.247,3.678v3.185H32.981V450.82h0.46Zm-3.458-3.68a3.915,3.915,0,0,1,.6,1.74c0,0.419-.074,1.125-0.574,1.148l-0.026,0-0.025,0c-0.5-.023-0.574-0.729-0.574-1.148A3.919,3.919,0,0,1,29.983,447.14Zm0.247,3.679v3.186h-0.46v-3.186h0.46Zm-3.459-3.679a3.916,3.916,0,0,1,.6,1.74c0,0.419-.075,1.125-0.574,1.148l-0.026,0-0.026,0c-0.5-.023-0.574-0.729-0.574-1.148A3.92,3.92,0,0,1,26.772,447.14Zm0.248,6.865H26.559v-3.186h0.46v3.186Zm-3.471.79h12.9v1.723a3.586,3.586,0,0,1-3.05,1.7H33.37a3.353,3.353,0,0,1-3-1.873,0.4,0.4,0,0,0-.366-0.238h0a0.4,0.4,0,0,0-.367.23,3.473,3.473,0,0,1-3.147,1.882H26.444a3.322,3.322,0,0,1-2.895-1.684V454.8h0Zm16.644,12.328v2.086H19.806v-3.342a4.159,4.159,0,0,0,2.8,1.044h0.062a4.6,4.6,0,0,0,3.682-1.819,4.251,4.251,0,0,0,3.515,1.819,4.62,4.62,0,0,0,3.743-1.819,4.245,4.245,0,0,0,3.518,1.819,4.883,4.883,0,0,0,3.064-1.11v1.322h0Zm0-5.342v2.83a3.927,3.927,0,0,1-3.049,1.509H37.134a3.533,3.533,0,0,1-3.161-1.976,0.4,0.4,0,0,0-.366-0.238h0a0.4,0.4,0,0,0-.367.231,3.686,3.686,0,0,1-3.346,1.983H29.875a3.529,3.529,0,0,1-3.156-1.963,0.407,0.407,0,0,0-.746-0.01,3.686,3.686,0,0,1-3.342,1.973H22.616a3.4,3.4,0,0,1-2.809-1.423v-3.859h11.98a0.4,0.4,0,1,0,0-.791H23.549v-2.223a4,4,0,0,0,2.889,1.182h0.05a4.413,4.413,0,0,0,3.521-1.722,4.065,4.065,0,0,0,3.355,1.721H33.4a4.7,4.7,0,0,0,3.05-1.187v2.228H35.21a0.4,0.4,0,1,0,0,.791h4.984v0.943h0Z" transform="translate(-19 -446)"/>
</svg>
