<svg xmlns="http://www.w3.org/2000/svg" width="19" height="24" viewBox="0 0 19 24">
  <defs>
    <style>
      .cls-1 {
        fill: #7d87a4;
        fill-rule: evenodd;
      }
    </style>
  </defs>
  <path id="игрушки" class="cls-1" d="M38.993,411.664a1.652,1.652,0,0,1-.727,1.354,1.865,1.865,0,0,1-.995.254,3.351,3.351,0,0,1-1.044-.179l-0.025-.011a5.555,5.555,0,0,1-.425.739,2.168,2.168,0,0,1,.144,1.261,3.482,3.482,0,0,1-1.02,1.879,3.56,3.56,0,0,1-1.9,1.006,2.721,2.721,0,0,1-.416.033,1.931,1.931,0,0,1-1.389-.535,1.768,1.768,0,0,1-.43-0.685,8.637,8.637,0,0,1-2.514,0,1.769,1.769,0,0,1-.431.685,1.931,1.931,0,0,1-1.389.535,2.721,2.721,0,0,1-.416-0.033,3.56,3.56,0,0,1-1.9-1.006,3.481,3.481,0,0,1-1.02-1.879,2.168,2.168,0,0,1,.144-1.261,5.628,5.628,0,0,1-.427-0.741l-0.031.013a3.351,3.351,0,0,1-1.044.179,1.865,1.865,0,0,1-.995-0.254,1.652,1.652,0,0,1-.727-1.354c-0.168-2.023,2.368-3.734,3.291-4.287a6.539,6.539,0,0,1-2.149-4.759,6.355,6.355,0,0,1,1.408-3.948,2.575,2.575,0,0,1-1.027-2.063,2.646,2.646,0,0,1,5.188-.7,9.737,9.737,0,0,1,5.571,0,2.646,2.646,0,0,1,5.188.7,2.575,2.575,0,0,1-1.027,2.063,6.355,6.355,0,0,1,1.408,3.948,6.54,6.54,0,0,1-2.152,4.762C36.632,407.935,39.16,409.644,38.993,411.664Zm-7.621,4.616c0,0.011.006,0.022,0.008,0.033a0.342,0.342,0,0,1,.006.053,1.123,1.123,0,0,0,.311.6c0.6,0.6,1.814.369,2.7-.5a2.153,2.153,0,0,0,.677-2.45,0.346,0.346,0,0,1-.033-0.053,1.045,1.045,0,0,0-.133-0.16c-0.6-.595-1.814-0.369-2.7.5A2.506,2.506,0,0,0,31.372,416.28Zm-3.048-.595a2.583,2.583,0,0,1,.034.4,8.076,8.076,0,0,0,2.292,0,2.571,2.571,0,0,1,.034-0.4,3.474,3.474,0,0,1,1.02-1.879,3.727,3.727,0,0,1,1.329-.855,4.488,4.488,0,0,0-7.057,0,3.729,3.729,0,0,1,1.329.855A3.475,3.475,0,0,1,28.324,415.685Zm-3.713.777c0.885,0.874,2.1,1.1,2.7.5a1.126,1.126,0,0,0,.311-0.6,0.327,0.327,0,0,1,.006-0.051,0.293,0.293,0,0,1,.007-0.029,2.5,2.5,0,0,0-.835-1.98,2.7,2.7,0,0,0-1.808-.837,1.237,1.237,0,0,0-.892.332,1.087,1.087,0,0,0-.131.158,0.3,0.3,0,0,1-.036.056A2.156,2.156,0,0,0,24.611,416.462Zm-2.378-7.45a3.55,3.55,0,0,0-1.514,2.6,0.982,0.982,0,0,0,.4.816,1.964,1.964,0,0,0,1.406.01l0.021-.007a5.13,5.13,0,0,1,.293-3.892C22.642,408.677,22.437,408.837,22.233,409.012ZM24.172,394.7a1.918,1.918,0,0,0-1.928,1.9,1.879,1.879,0,0,0,.779,1.526,7.825,7.825,0,0,1,.6-0.565,1.1,1.1,0,0,1-.571-0.961,1.12,1.12,0,0,1,2.23-.127q0.368-.184.759-0.337A1.924,1.924,0,0,0,24.172,394.7Zm-0.4,1.9a0.4,0.4,0,1,0,.4-0.4A0.4,0.4,0,0,0,23.767,396.607Zm13,0a1.931,1.931,0,0,0-3.8-.464q0.39,0.153.759,0.337a1.119,1.119,0,0,1,2.23.127,1.1,1.1,0,0,1-.571.961,7.806,7.806,0,0,1,.6.565A1.879,1.879,0,0,0,36.763,396.607Zm-2.333,0a0.4,0.4,0,1,0,.4-0.4A0.4,0.4,0,0,0,34.43,396.607Zm2.714,6.011c0-3.535-3.428-6.411-7.641-6.411s-7.64,2.876-7.64,6.411,3.428,6.411,7.64,6.411S37.144,406.153,37.144,402.618Zm-2.16,5.366a9.462,9.462,0,0,1-10.961,0,4.614,4.614,0,0,0-1.017,2.858,4.551,4.551,0,0,0,.682,2.374,2.025,2.025,0,0,1,1.546-.437,5.181,5.181,0,0,1,8.541,0,2.029,2.029,0,0,1,1.546.437A4.551,4.551,0,0,0,36,410.842,4.629,4.629,0,0,0,34.984,407.984Zm1.184,0.551a5.175,5.175,0,0,1,.547,2.307,5.12,5.12,0,0,1-.253,1.586l0.014,0a1.887,1.887,0,0,0,1.408-.011,0.982,0.982,0,0,0,.4-0.815C38.376,410.461,37.2,409.3,36.168,408.535Zm-11.211-3.85c0-1.955,2.039-3.546,4.546-3.546s4.546,1.591,4.546,3.546-2.039,3.546-4.546,3.546S24.957,406.64,24.957,404.685Zm4.662-2.84-0.116,0-0.116,0c-1.05.038-1.05,0.588-1.05,0.773s0,0.775,1.166.775,1.166-.583,1.166-0.775S30.669,401.883,29.62,401.845Zm3.716,2.84a2.86,2.86,0,0,0-2.01-2.5,1.555,1.555,0,0,1,.059.432,1.468,1.468,0,0,1-1.523,1.461v0.794a0.786,0.786,0,0,0,1.571,0,0.357,0.357,0,0,1,.714,0,1.5,1.5,0,0,1-2.642.956,1.5,1.5,0,0,1-2.642-.956,0.357,0.357,0,0,1,.714,0,0.786,0.786,0,0,0,1.571,0v-0.794a1.468,1.468,0,0,1-1.523-1.461,1.555,1.555,0,0,1,.058-0.432,2.86,2.86,0,0,0-2.01,2.5c0,1.566,1.719,2.841,3.832,2.841S33.336,406.251,33.336,404.685Zm-0.024-2.842a0.354,0.354,0,0,1-.357-0.352v-0.376a0.357,0.357,0,0,1,.714,0v0.376A0.354,0.354,0,0,1,33.312,401.843Zm-7.617,0a0.354,0.354,0,0,1-.357-0.352v-0.376a0.357,0.357,0,0,1,.714,0v0.376A0.354,0.354,0,0,1,25.7,401.843Z" transform="translate(-20 -394)"/>
</svg>
