<svg xmlns="http://www.w3.org/2000/svg" width="23" height="24" viewBox="0 0 23 24">
  <defs>
    <style>
      .cls-1 {
        fill: #7d87a4;
        fill-rule: evenodd;
      }
    </style>
  </defs>
  <path id="сад_и_огород" data-name="сад и огород" class="cls-1" d="M40.949,516.214a0.444,0.444,0,0,0-.3-0.223c-0.032-.007-2.6-0.568-5.868-1.016a0.456,0.456,0,0,0-.014-0.045c-1.442-3.337-1.919-3.337-2.176-3.337-0.309,0-1.846.314-3.1,0.58v-3.212a0.348,0.348,0,0,0,.056,0,5.03,5.03,0,0,0,4.833-1.288,4.931,4.931,0,0,0,1.236-5.011,0.44,0.44,0,0,0-.289-0.287,5,5,0,0,0-5.606,1.883A5.974,5.974,0,0,0,28,500.761a6.077,6.077,0,0,0-6.1-1.482,0.44,0.44,0,0,0-.289.287,5.957,5.957,0,0,0,1.494,6.055,6.062,6.062,0,0,0,5.512,1.634v5.108l-0.448.1c-0.925-.177-2.448-0.371-2.961.138l-0.811.8-1.228.4c-1.491.494-2,2.679-2.058,2.94a9.875,9.875,0,0,1-1.487-1.094,0.442,0.442,0,0,0-.3-0.113c-0.979,0-1.327.473-1.327,0.877,0,0.127,0,.362.93,1.432a21.859,21.859,0,0,0,2.152,2.135c1.592,1.375,3.961,3.014,6.206,3.014a19.239,19.239,0,0,0,5.788-.934,7.231,7.231,0,0,1,1.731-.382,34.4,34.4,0,0,0,4.053-.445,0.44,0.44,0,0,0,.338-0.27l1.769-4.387A0.436,0.436,0,0,0,40.949,516.214Zm-10.038-12a4.138,4.138,0,0,1,3.935-1.073,4.059,4.059,0,0,1-1.082,3.9,4.135,4.135,0,0,1-3.574,1.146,4.335,4.335,0,0,1,1.277-1.473,0.437,0.437,0,0,0,.2-0.588,0.444,0.444,0,0,0-.593-0.2,4.188,4.188,0,0,0-1.366,1.377A4.062,4.062,0,0,1,30.91,504.218Zm-4.309-.157a4.551,4.551,0,0,1,1.586,2.375v0A5.18,5.18,0,0,1,23.729,505a5.088,5.088,0,0,1-1.341-4.949,5.184,5.184,0,0,1,4.989,1.33,5.087,5.087,0,0,1,1.475,4.27,5.018,5.018,0,0,0-1.761-2.321,0.445,0.445,0,0,0-.613.122A0.436,0.436,0,0,0,26.6,504.061Zm-4.628,12.883c0.109-.541.587-2.008,1.475-2.3l1.327-.439a0.439,0.439,0,0,0,.173-0.106l0.878-.87a5.611,5.611,0,0,1,2.262.113,0.449,0.449,0,0,0,.183,0c1.758-.388,3.71-0.791,4.226-0.858a13.532,13.532,0,0,1,1.272,2.362c-0.513-.064-1.038-0.123-1.569-0.175-4.394-.436-6.923-0.06-7.516,1.117a0.709,0.709,0,0,0,.021.707c0.366,0.587,1.666.806,4.8,0.806a0.76,0.76,0,0,1,.694.216,0.356,0.356,0,0,1-.109.337,9.31,9.31,0,0,1-3.864.426,11.606,11.606,0,0,1-4.36-1.12A0.43,0.43,0,0,0,21.972,516.944Zm16.5,3.469a31.266,31.266,0,0,1-3.663.393,7.691,7.691,0,0,0-1.981.418,18.452,18.452,0,0,1-5.538.9c-1.912,0-4.021-1.443-5.454-2.653a17.68,17.68,0,0,1-2.875-3,1.557,1.557,0,0,1,.212-0.04,11.8,11.8,0,0,0,7.155,2.732c2.008,0.1,3.965-.273,4.371-0.677a1.218,1.218,0,0,0,.314-1.307,1.443,1.443,0,0,0-1.512-.758c-2.755,0-3.668-.19-3.96-0.338,0.28-.315,1.488-1.045,6.57-0.541,3.434,0.34,6.632.954,7.842,1.2Z" transform="translate(-18 -499)"/>
</svg>
