<svg xmlns="http://www.w3.org/2000/svg" width="20" height="23" viewBox="0 0 20 23">
  <defs>
    <style>
      .cls-1 {
        fill: #7d87a4;
        fill-rule: evenodd;
      }
    </style>
  </defs>
  <path id="товары_для_отдыха" data-name="товары для отдыха" class="cls-1" d="M39.614,655.88H37.761a0.387,0.387,0,0,1,0-.774h1.853A0.387,0.387,0,0,1,39.614,655.88Zm-1.58-2.361-0.632.633a0.387,0.387,0,1,1-.546-0.547l0.632-.634A0.387,0.387,0,0,1,38.034,653.519Zm-2.515,3.359a1.385,1.385,0,1,1,1.381-1.385A1.385,1.385,0,0,1,35.518,656.878Zm0-2a0.611,0.611,0,1,0,.609.611A0.611,0.611,0,0,0,35.518,654.882Zm0-1.344a0.387,0.387,0,0,1-.386-0.388v-1.763a0.386,0.386,0,1,1,.773,0v1.763A0.387,0.387,0,0,1,35.518,653.538Zm-1.337.614a0.384,0.384,0,0,1-.546,0L33,653.519a0.387,0.387,0,1,1,.546-0.548l0.632,0.634A0.387,0.387,0,0,1,34.181,654.152Zm-0.519,1.341a0.386,0.386,0,0,1-.386.387H31.422a0.387,0.387,0,0,1,0-.774h1.853A0.386,0.386,0,0,1,33.662,655.493Zm-0.113,2.522A0.387,0.387,0,0,1,33,657.467l0.632-.634a0.387,0.387,0,0,1,.546.548Zm1.583,1.583v-1.763a0.386,0.386,0,1,1,.773,0V659.6A0.386,0.386,0,1,1,35.132,659.6Zm2.016,3.784a0.388,0.388,0,0,1-.2.6l-7.855,2.373,2.108,6.868h6.053a0.387,0.387,0,0,1,0,.774H25.205a0.387,0.387,0,0,1,0-.774h5.19l-2.04-6.645L20.5,668.955a0.387,0.387,0,0,1-.5-0.393,9.554,9.554,0,0,1,6.006-8.33c0.13-.055.317-0.12,0.394-0.147l-0.1-.338a0.386,0.386,0,1,1,.74-0.223l0.1,0.338c0.079-.021.321-0.072,0.409-0.1a9.425,9.425,0,0,1,1.972-.209A9.57,9.57,0,0,1,37.148,663.382Zm-16.326,4.666,2.943-.889a8.866,8.866,0,0,1-.114-2.211,6.976,6.976,0,0,1,.943-3.09A8.826,8.826,0,0,0,20.822,668.048Zm6.774-7.5q-0.3.069-.6,0.159h0q-0.3.092-.593,0.2a5.711,5.711,0,0,0-1.975,4.07,8.151,8.151,0,0,0,.088,1.953l7.98-2.411a8.128,8.128,0,0,0-1-1.676A5.688,5.688,0,0,0,27.6,660.548Zm2.016-.215a6.939,6.939,0,0,1,2.5,2.058,8.863,8.863,0,0,1,1.124,1.907l2.943-.889A8.8,8.8,0,0,0,29.612,660.333Zm7.243-2.952a0.387,0.387,0,1,1,.546-0.548l0.632,0.634a0.387,0.387,0,1,1-.546.548Z" transform="translate(-20 -651)"/>
</svg>
