<svg xmlns="http://www.w3.org/2000/svg" width="19" height="25" viewBox="0 0 19 25">
  <defs>
    <style>
      .cls-1 {
        fill: #7d87a4;
        fill-rule: evenodd;
      }
    </style>
  </defs>
  <path id="светотехника" class="cls-1" d="M38.8,345.94l-1.323.757a0.4,0.4,0,0,1-.536-0.143,0.389,0.389,0,0,1,.145-0.532l1.323-.757a0.4,0.4,0,0,1,.536.144A0.388,0.388,0,0,1,38.8,345.94Zm-3.64,9.143a24.675,24.675,0,0,1-1.766,2.125,3.145,3.145,0,0,0-1.18,2.608,0.393,0.393,0,0,1-.394.391H27.211a0.393,0.393,0,0,1-.395-0.391,3.117,3.117,0,0,0-1.181-2.585h0a23.434,23.434,0,0,1-1.795-2.148,6.9,6.9,0,0,1-.816-6.755l0.007-.015a6.983,6.983,0,0,1,3.792-3.748h0a7.05,7.05,0,0,1,7.638,1.508A6.9,6.9,0,0,1,35.164,355.083ZM33.9,346.624a6.279,6.279,0,0,0-6.78-1.34h0a6.235,6.235,0,0,0-3.364,3.323l-0.008.021a6.12,6.12,0,0,0,.724,5.994,22.98,22.98,0,0,0,1.742,2.085h0a3.7,3.7,0,0,1,1.381,2.719h3.844a3.726,3.726,0,0,1,1.376-2.738,23.915,23.915,0,0,0,1.714-2.064A6.132,6.132,0,0,0,33.9,346.624Zm-2.967,7.415a20.448,20.448,0,0,0-.277,4.011,0.393,0.393,0,0,1-.785,0,21.177,21.177,0,0,1,.291-4.163,11.067,11.067,0,0,1,.914-2.675,1.149,1.149,0,0,1-1.34-.122L29.5,350.9l-0.236.191a1.151,1.151,0,0,1-1.339.121,11.067,11.067,0,0,1,.915,2.676,21.172,21.172,0,0,1,.291,4.163,0.392,0.392,0,0,1-.785,0,20.448,20.448,0,0,0-.278-4.011,11.461,11.461,0,0,0-1.352-3.453v0a0.3,0.3,0,0,1-.014-0.029l0-.006c0-.01-0.008-0.02-0.012-0.031l0,0a0.331,0.331,0,0,1-.009-0.035h0a0.384,0.384,0,0,1,.01-0.2,0.394,0.394,0,0,1,.494-0.253,5.14,5.14,0,0,1,.731.315l0.021,0.012a0.8,0.8,0,0,0,.839.133l0.485-.391a0.4,0.4,0,0,1,.507.01l0.473,0.382a0.8,0.8,0,0,0,.839-0.134l0.021-.011a5.078,5.078,0,0,1,.732-0.316,0.393,0.393,0,0,1,.494.253,0.386,0.386,0,0,1-.044.331A11.438,11.438,0,0,0,30.934,354.039ZM29.5,346.413a4.6,4.6,0,0,0-.886.085,4.407,4.407,0,0,0-.844.259,4.484,4.484,0,0,0-.75.4h0a4.506,4.506,0,0,0-1.2,1.2h0a4.354,4.354,0,0,0-.408.744,0.394,0.394,0,0,1-.514.207,0.388,0.388,0,0,1-.209-0.509,5.172,5.172,0,0,1,.479-0.876h0a5.175,5.175,0,0,1,1.419-1.405h0a5.25,5.25,0,0,1,.886-0.474,5.109,5.109,0,0,1,1-.3,5.249,5.249,0,0,1,1.039-.105A0.391,0.391,0,1,1,29.5,346.413Zm-4.442,4.4a4.4,4.4,0,0,0,.087.878,4.319,4.319,0,0,0,.26.837,0.389,0.389,0,0,1-.209.51,0.394,0.394,0,0,1-.514-0.208,5.087,5.087,0,0,1-.307-0.987,5.217,5.217,0,0,1-.105-1.03A0.394,0.394,0,0,1,25.059,350.815Zm9.277-7.523a0.4,0.4,0,0,1-.536.143,0.388,0.388,0,0,1-.145-0.531l0.764-1.311a0.4,0.4,0,0,1,.536-0.144,0.388,0.388,0,0,1,.145.532Zm-4.835-1a0.393,0.393,0,0,1-.394-0.391v-1.513a0.394,0.394,0,0,1,.788,0V341.9A0.393,0.393,0,0,1,29.5,342.3Zm-4.3,1.14a0.4,0.4,0,0,1-.535-0.143L23.9,341.981a0.388,0.388,0,0,1,.144-0.531,0.4,0.4,0,0,1,.536.143l0.763,1.311A0.387,0.387,0,0,1,25.2,343.435ZM21.52,346.7L20.2,345.94a0.388,0.388,0,0,1-.145-0.531,0.4,0.4,0,0,1,.536-0.143l1.323,0.756a0.389,0.389,0,0,1,.145.532A0.4,0.4,0,0,1,21.52,346.7Zm5.69,14.422h4.581a0.391,0.391,0,1,1,0,.781H27.21A0.391,0.391,0,1,1,27.21,361.119Zm0.509,1.55h3.563a0.391,0.391,0,1,1,0,.781H27.719A0.391,0.391,0,1,1,27.719,362.669Zm0.509,1.55h2.545a0.391,0.391,0,1,1,0,.781H28.228A0.391,0.391,0,1,1,28.228,364.219Z" transform="translate(-20 -340)"/>
</svg>
