<?xml version='1.0' encoding='iso-8859-1'?>
<svg version="1.1" xmlns="http://www.w3.org/2000/svg" viewBox="0 0 274.939 274.939" xmlns:xlink="http://www.w3.org/1999/xlink" enable-background="new 0 0 274.939 274.939">
  <g>
    <path d="m187.219,131.779c11.676-13.973 18.985-32.662 18.985-53.474 0-43.503-31.322-78.305-69.605-78.305s-69.605,34.802-69.605,78.305c0,20.899 7.361,39.657 19.106,53.648-35.272,6.717-62.609,38.126-62.609,75.121v59.164c0,5.22 3.48,8.701 8.701,8.701s8.701-3.48 8.701-8.701v-59.164c0-33.062 26.102-59.164 59.164-59.164h5.273c9.449,5.377 19.977,8.701 31.27,8.701 11.293,0 21.821-3.324 31.287-8.701 0.018,0 0.018,0 0.035,0h5.22c33.062,0 59.164,26.102 59.164,59.164v59.164c0,5.22 3.48,8.701 8.701,8.701 5.22,0 8.701-3.48 10.441-8.701v-59.164c-0.001-37.552-28.191-69.222-64.229-75.295zm-102.823-53.474c0-33.062 22.621-60.904 52.204-60.904s52.204,27.842 52.204,60.904-22.621,60.904-52.204,60.904-52.204-27.841-52.204-60.904z"/>
  </g>
</svg>
